<svg data-v-fde0c5aa="" xmlns="http://www.w3.org/2000/svg" viewBox="0 0 300 300" class="font"><defs data-v-fde0c5aa=""></defs><rect data-v-fde0c5aa="" fill="transparent" x="0" y="0" width="300px" height="300px" class="logo-background-square"></rect><defs data-v-fde0c5aa=""><linearGradient data-v-fde0c5aa="" gradientTransform="rotate(25)" id="167154f9-7313-43ae-ac61-703028192c1f" x1="0%" y1="0%" x2="100%" y2="0%"><stop data-v-fde0c5aa="" offset="0%" stop-color="#E90DDA" stop-opacity="1"></stop><stop data-v-fde0c5aa="" offset="100%" stop-color="#15CFF1" stop-opacity="1"></stop></linearGradient></defs><g data-v-fde0c5aa="" id="018cdced-0695-4803-a9c9-a663ca3f2bd4" fill="url(#167154f9-7313-43ae-ac61-703028192c1f)" transform="matrix(2.6904733891615566,0,0,2.6904733891615566,37.28262190260519,122.90693250929274)"><path d="M4.15 12.72L4.15 12.72Q4.60 12.72 4.98 12.60Q5.37 12.48 5.64 12.26Q5.91 12.04 6.07 11.73Q6.22 11.42 6.22 11.05L6.22 11.05Q6.22 10.60 6.01 10.29Q5.80 9.99 5.47 9.75Q5.13 9.52 4.69 9.34Q4.25 9.16 3.80 8.97Q3.35 8.78 2.91 8.57Q2.47 8.35 2.14 8.03Q1.80 7.72 1.59 7.29Q1.38 6.86 1.38 6.25L1.38 6.25Q1.38 5.61 1.63 5.10Q1.87 4.59 2.31 4.23Q2.75 3.87 3.36 3.68Q3.96 3.49 4.69 3.49L4.69 3.49Q5.13 3.49 5.80 3.58Q6.47 3.66 7.23 3.89L7.23 3.89L7 5.08L6.86 5.15Q6.49 4.98 6.13 4.86Q5.78 4.74 5.46 4.68Q5.15 4.61 4.88 4.58Q4.61 4.55 4.42 4.55L4.42 4.55Q4.01 4.55 3.69 4.65Q3.36 4.75 3.13 4.94Q2.91 5.13 2.78 5.40Q2.65 5.67 2.65 6.01L2.65 6.01Q2.65 6.47 2.86 6.79Q3.07 7.11 3.41 7.36Q3.76 7.60 4.20 7.79Q4.63 7.98 5.09 8.18Q5.54 8.37 5.98 8.59Q6.42 8.80 6.76 9.10Q7.11 9.39 7.32 9.78Q7.53 10.18 7.53 10.73L7.53 10.73Q7.53 11.34 7.26 11.89Q7 12.44 6.52 12.86Q6.05 13.28 5.38 13.53Q4.72 13.78 3.91 13.78L3.91 13.78Q3.57 13.78 3.20 13.73Q2.82 13.69 2.45 13.60Q2.07 13.51 1.71 13.39Q1.34 13.27 1.01 13.12L1.01 13.12L1.24 11.92L1.38 11.85Q2.08 12.26 2.79 12.49Q3.51 12.72 4.15 12.72ZM11.66 13.64L8.95 6.40L10.41 6.40L12.00 11.29L12.33 12.62L12.46 12.62L12.79 11.29L14.38 6.40L15.72 6.40L11.64 17.31L10.38 17.31L11.90 13.64L11.66 13.64ZM17.33 13.64L17.33 6.40L18.34 6.40L18.55 7.66Q18.79 7.43 19.09 7.18Q19.40 6.94 19.76 6.73Q20.12 6.53 20.52 6.40Q20.92 6.26 21.35 6.26L21.35 6.26Q21.85 6.26 22.25 6.45Q22.65 6.64 22.93 6.99Q23.21 7.33 23.37 7.81Q23.52 8.29 23.52 8.85L23.52 8.85L23.52 13.64L22.22 13.64L22.22 8.97Q22.22 8.57 22.11 8.27Q22.00 7.96 21.80 7.76Q21.60 7.56 21.33 7.46Q21.05 7.36 20.73 7.36L20.73 7.36Q20.17 7.36 19.66 7.66Q19.15 7.96 18.63 8.45L18.63 8.45L18.63 13.64L17.33 13.64ZM31.00 12.29L31.00 13.03Q30.58 13.36 29.99 13.57Q29.41 13.78 28.72 13.78L28.72 13.78Q27.98 13.78 27.38 13.52Q26.78 13.27 26.36 12.81Q25.94 12.35 25.71 11.71Q25.48 11.07 25.48 10.32L25.48 10.32Q25.48 9.43 25.78 8.69Q26.08 7.94 26.60 7.40Q27.13 6.86 27.84 6.56Q28.55 6.26 29.36 6.26L29.36 6.26Q29.55 6.26 29.77 6.28Q30.00 6.30 30.21 6.34Q30.43 6.38 30.64 6.44Q30.84 6.49 31.00 6.58L31.00 6.58L30.73 7.71L30.58 7.78Q30.44 7.68 30.27 7.59Q30.09 7.50 29.90 7.44Q29.70 7.38 29.49 7.34Q29.29 7.30 29.09 7.30L29.09 7.30Q28.63 7.30 28.22 7.48Q27.82 7.66 27.51 8.01Q27.20 8.35 27.02 8.86Q26.84 9.36 26.84 10.00L26.84 10.00Q26.84 10.66 27.03 11.16Q27.22 11.66 27.55 12.00Q27.88 12.34 28.33 12.51Q28.78 12.69 29.31 12.69L29.31 12.69Q29.62 12.69 30.06 12.61Q30.51 12.53 31.00 12.29L31.00 12.29ZM39.83 13.64L38.88 10.92L34.56 10.92L33.63 13.64L32.36 13.64L36.09 3.63L37.51 3.63L41.24 13.64L39.83 13.64ZM34.92 9.88L38.51 9.88L37.18 5.97L36.79 4.57L36.65 4.57L36.26 5.97L34.92 9.88ZM46.57 14.05L44.88 14.05Q44.71 14.14 44.51 14.27Q44.30 14.40 44.13 14.56Q43.96 14.72 43.85 14.92Q43.73 15.11 43.73 15.33L43.73 15.33Q43.73 15.54 43.86 15.74Q44.00 15.93 44.25 16.08Q44.51 16.22 44.88 16.31Q45.26 16.39 45.75 16.39L45.75 16.39Q46.30 16.39 46.74 16.28Q47.17 16.17 47.48 15.98Q47.78 15.79 47.93 15.54Q48.09 15.29 48.09 15.01L48.09 15.01Q48.09 14.76 47.97 14.58Q47.84 14.40 47.64 14.28Q47.43 14.16 47.15 14.11Q46.87 14.05 46.57 14.05L46.57 14.05ZM43.95 13.92L43.95 13.92Q43.74 13.85 43.55 13.75Q43.37 13.64 43.23 13.52Q43.09 13.39 43.02 13.23Q42.94 13.07 42.94 12.89L42.94 12.89Q42.94 12.66 43.05 12.46Q43.16 12.26 43.34 12.07Q43.52 11.88 43.75 11.71Q43.98 11.55 44.22 11.39L44.22 11.39Q43.46 11.02 43.11 10.42Q42.76 9.82 42.76 9.11L42.76 9.11Q42.76 8.67 42.89 8.29Q43.01 7.91 43.24 7.59Q43.46 7.27 43.76 7.03Q44.06 6.78 44.41 6.61Q44.76 6.44 45.14 6.35Q45.52 6.26 45.90 6.26L45.90 6.26Q46.35 6.26 46.77 6.38Q47.20 6.49 47.48 6.68L47.48 6.68Q47.59 6.62 47.75 6.56Q47.91 6.51 48.09 6.47Q48.27 6.44 48.45 6.42Q48.63 6.40 48.79 6.40L48.79 6.40L50.02 6.40L49.75 7.42L48.13 7.42Q48.18 7.45 48.27 7.58Q48.36 7.70 48.46 7.91Q48.55 8.11 48.62 8.37Q48.69 8.64 48.69 8.94L48.69 8.94Q48.69 9.50 48.43 9.98Q48.17 10.47 47.74 10.83Q47.31 11.20 46.76 11.41Q46.21 11.62 45.64 11.62L45.64 11.62Q45.49 11.62 45.34 11.61Q45.19 11.59 45.01 11.57L45.01 11.57Q44.89 11.65 44.75 11.74Q44.61 11.84 44.50 11.95Q44.39 12.07 44.31 12.19Q44.24 12.32 44.24 12.46L44.24 12.46Q44.24 12.67 44.44 12.81Q44.64 12.95 44.99 12.95L44.99 12.95L46.92 12.95Q47.41 12.95 47.85 13.07Q48.29 13.20 48.61 13.44Q48.94 13.67 49.13 14Q49.32 14.33 49.32 14.72L49.32 14.72Q49.32 15.19 49.05 15.67Q48.79 16.15 48.28 16.55Q47.78 16.95 47.04 17.20Q46.31 17.45 45.36 17.45L45.36 17.45Q44.74 17.45 44.20 17.33Q43.67 17.21 43.27 17.00Q42.88 16.79 42.66 16.49Q42.43 16.19 42.43 15.82L42.43 15.82Q42.43 15.59 42.52 15.38Q42.60 15.17 42.73 14.98Q42.87 14.80 43.04 14.64Q43.20 14.47 43.37 14.34Q43.54 14.21 43.69 14.10Q43.85 13.99 43.95 13.92ZM43.99 8.90L43.99 8.90Q43.99 9.27 44.12 9.59Q44.25 9.91 44.48 10.15Q44.71 10.38 45.03 10.52Q45.35 10.65 45.73 10.65L45.73 10.65Q46.09 10.65 46.41 10.53Q46.72 10.40 46.96 10.19Q47.20 9.97 47.33 9.66Q47.46 9.34 47.46 8.96L47.46 8.96Q47.46 8.59 47.33 8.27Q47.20 7.96 46.97 7.73Q46.74 7.50 46.42 7.37Q46.09 7.23 45.71 7.23L45.71 7.23Q45.35 7.23 45.04 7.35Q44.73 7.47 44.49 7.69Q44.26 7.90 44.12 8.21Q43.99 8.52 43.99 8.90ZM56.93 12.29L56.93 13.03Q56.67 13.21 56.33 13.35Q55.99 13.49 55.63 13.59Q55.27 13.69 54.90 13.73Q54.54 13.78 54.22 13.78L54.22 13.78Q53.53 13.78 52.90 13.55Q52.27 13.32 51.80 12.87Q51.32 12.41 51.04 11.75Q50.76 11.08 50.76 10.21L50.76 10.21Q50.76 9.32 51.06 8.59Q51.36 7.85 51.86 7.34Q52.36 6.82 53.01 6.54Q53.66 6.26 54.38 6.26L54.38 6.26Q54.96 6.26 55.46 6.46Q55.97 6.65 56.34 7.04Q56.71 7.43 56.92 8.02Q57.13 8.60 57.13 9.38L57.13 9.38Q57.13 9.54 57.12 9.75Q57.11 9.97 57.07 10.21L57.07 10.21L52.12 10.21Q52.12 10.80 52.33 11.26Q52.53 11.72 52.91 12.04Q53.29 12.36 53.82 12.52Q54.35 12.69 54.98 12.69L54.98 12.69Q55.14 12.69 55.36 12.67Q55.59 12.66 55.85 12.62Q56.11 12.58 56.39 12.50Q56.67 12.42 56.93 12.29L56.93 12.29ZM52.12 9.41L55.90 9.41Q55.90 8.89 55.76 8.50Q55.62 8.11 55.37 7.84Q55.13 7.57 54.80 7.44Q54.48 7.30 54.11 7.30L54.11 7.30Q53.70 7.30 53.33 7.47Q52.97 7.64 52.70 7.92Q52.43 8.21 52.27 8.59Q52.12 8.98 52.12 9.41L52.12 9.41ZM59.16 13.64L59.16 6.40L60.17 6.40L60.38 7.66Q60.61 7.43 60.92 7.18Q61.23 6.94 61.59 6.73Q61.95 6.53 62.35 6.40Q62.75 6.26 63.18 6.26L63.18 6.26Q63.68 6.26 64.08 6.45Q64.48 6.64 64.76 6.99Q65.04 7.33 65.20 7.81Q65.35 8.29 65.35 8.85L65.35 8.85L65.35 13.64L64.05 13.64L64.05 8.97Q64.05 8.57 63.94 8.27Q63.83 7.96 63.63 7.76Q63.43 7.56 63.16 7.46Q62.88 7.36 62.56 7.36L62.56 7.36Q62.00 7.36 61.49 7.66Q60.98 7.96 60.46 8.45L60.46 8.45L60.46 13.64L59.16 13.64ZM72.80 11.58L72.80 7.64Q72.30 7.42 71.89 7.36Q71.49 7.30 71.23 7.30L71.23 7.30Q70.62 7.30 70.15 7.50Q69.67 7.70 69.34 8.07Q69.02 8.43 68.84 8.93Q68.67 9.44 68.67 10.05L68.67 10.05Q68.67 10.58 68.82 11.06Q68.96 11.54 69.23 11.90Q69.49 12.26 69.87 12.48Q70.25 12.69 70.71 12.69L70.71 12.69Q71.26 12.69 71.79 12.39Q72.31 12.09 72.80 11.58L72.80 11.58ZM72.80 6.44L72.80 2.69L74.10 2.69L74.10 13.64L73.09 13.64L72.88 12.39Q72.65 12.61 72.37 12.85Q72.08 13.09 71.73 13.30Q71.38 13.51 70.97 13.64Q70.57 13.78 70.11 13.78L70.11 13.78Q69.45 13.78 68.93 13.49Q68.41 13.20 68.05 12.72Q67.69 12.24 67.50 11.61Q67.31 10.99 67.31 10.32L67.31 10.32Q67.31 9.44 67.62 8.70Q67.94 7.95 68.50 7.41Q69.05 6.87 69.79 6.57Q70.54 6.26 71.39 6.26L71.39 6.26Q71.80 6.26 72.16 6.32Q72.52 6.38 72.80 6.44L72.80 6.44ZM80.42 12.56L80.42 12.56Q80.25 12.71 80.00 12.92Q79.76 13.13 79.46 13.32Q79.15 13.51 78.79 13.64Q78.44 13.78 78.03 13.78L78.03 13.78Q77.67 13.78 77.32 13.65Q76.98 13.53 76.71 13.28Q76.45 13.03 76.29 12.66Q76.13 12.29 76.13 11.81L76.13 11.81Q76.13 11.52 76.20 11.22Q76.27 10.92 76.44 10.64Q76.61 10.36 76.89 10.12Q77.16 9.88 77.57 9.70Q77.98 9.52 78.53 9.41Q79.08 9.31 79.80 9.31L79.80 9.31L80.42 9.31L80.42 8.68Q80.42 8.37 80.31 8.11Q80.20 7.86 80.00 7.68Q79.81 7.50 79.54 7.40Q79.27 7.30 78.94 7.30L78.94 7.30Q78.70 7.30 78.42 7.36Q78.14 7.41 77.86 7.51Q77.59 7.62 77.33 7.75Q77.08 7.89 76.89 8.05L76.89 8.05L76.77 7.98L76.49 6.99Q76.89 6.77 77.26 6.63Q77.63 6.49 77.97 6.41Q78.31 6.32 78.61 6.29Q78.92 6.26 79.20 6.26L79.20 6.26Q80.48 6.26 81.10 6.79Q81.72 7.32 81.72 8.38L81.72 8.38L81.72 11.95Q81.72 12.04 81.73 12.16Q81.74 12.29 81.80 12.41Q81.85 12.52 81.95 12.61Q82.04 12.69 82.22 12.69L82.22 12.69Q82.31 12.69 82.47 12.66Q82.63 12.63 82.78 12.55L82.78 12.55L82.78 13.28Q82.46 13.50 82.12 13.64Q81.79 13.78 81.48 13.78L81.48 13.78Q81.20 13.78 81.02 13.67Q80.84 13.56 80.72 13.38Q80.60 13.20 80.53 12.98Q80.47 12.77 80.42 12.56ZM80.42 11.69L80.42 10.10L79.90 10.10Q79.10 10.10 78.62 10.22Q78.15 10.33 77.90 10.52Q77.65 10.71 77.57 10.95Q77.49 11.20 77.49 11.46L77.49 11.46Q77.49 11.75 77.57 11.98Q77.66 12.20 77.80 12.36Q77.95 12.52 78.16 12.61Q78.36 12.69 78.60 12.69L78.60 12.69Q78.78 12.69 78.98 12.64Q79.17 12.60 79.40 12.49Q79.62 12.37 79.87 12.18Q80.12 11.99 80.42 11.69L80.42 11.69Z"></path></g></svg>
    